<?xml version="1.0" standalone="no"?>
<!DOCTYPE svg PUBLIC "-//W3C//DTD SVG 20010904//EN"
 "http://www.w3.org/TR/2001/REC-SVG-20010904/DTD/svg10.dtd">
<svg version="1.0" xmlns="http://www.w3.org/2000/svg"
 width="367.000000pt" height="367.000000pt" viewBox="0 0 367.000000 367.000000"
 preserveAspectRatio="xMidYMid meet">
<metadata>
Created by potrace 1.11, written by Peter Selinger 2001-2013
</metadata>
<g transform="translate(0.000000,367.000000) scale(0.100000,-0.100000)"
fill="#000000" stroke="none">
<path d="M2225 3568 c-15 -18 -66 -76 -114 -128 -182 -200 -166 -177 -150
-208 22 -44 148 -163 231 -220 l76 -52 46 35 c25 19 71 62 103 97 32 34 86 92
121 129 l62 66 -117 109 c-65 60 -140 129 -166 154 -27 25 -52 46 -56 48 -5 2
-21 -12 -36 -30z"/>
<path d="M1605 3319 c-17 -52 24 -240 76 -356 40 -89 160 -229 259 -305 197
-150 426 -182 755 -103 152 36 338 130 465 236 93 77 85 104 -90 309 -31 36
-63 76 -72 89 -11 15 -22 21 -35 17 -10 -3 -70 -44 -133 -91 -125 -93 -277
-174 -380 -201 -127 -34 -303 -19 -426 35 -126 56 -302 219 -375 348 -27 48
-35 52 -44 22z"/>
<path d="M1228 2895 c-2 -1 -32 -5 -68 -9 -216 -20 -452 -114 -632 -251 l-75
-57 119 -196 c65 -109 119 -201 121 -206 2 -5 27 5 57 21 81 45 295 138 375
163 99 31 102 31 186 37 99 7 164 -13 223 -70 89 -87 108 -153 63 -223 -55
-88 -135 -144 -247 -175 -51 -14 -268 -17 -377 -5 -65 7 -73 6 -73 -9 0 -25
40 -175 57 -215 45 -104 96 -201 133 -252 l41 -58 104 6 c183 11 295 -23 373
-111 83 -95 112 -268 65 -394 -57 -156 -174 -242 -378 -279 -52 -9 -234 -9
-308 1 -126 17 -294 79 -381 141 -143 101 -267 331 -371 686 -54 182 -82 238
-99 195 -7 -19 0 -313 9 -370 29 -188 54 -285 109 -423 138 -344 400 -609 704
-711 86 -29 147 -36 317 -35 124 0 162 4 220 22 211 64 427 286 491 503 27 91
35 146 39 270 4 155 -24 288 -90 434 -20 43 -34 79 -33 80 2 2 82 5 179 7 156
4 181 7 222 27 86 42 166 140 362 448 27 43 79 107 115 143 82 82 144 106 248
96 119 -10 158 -30 203 -102 22 -36 57 -133 65 -179 2 -16 7 -39 11 -49 9 -32
11 -250 2 -303 -15 -88 -20 -105 -44 -164 -74 -175 -238 -324 -420 -382 -53
-17 -93 -22 -165 -21 -129 1 -191 25 -274 108 -88 88 -132 171 -145 276 -1 13
-3 13 -11 -1 -65 -110 -52 -386 25 -578 71 -174 211 -303 372 -340 120 -29
288 -16 399 30 265 110 433 391 482 804 13 115 7 394 -12 485 -59 288 -171
492 -349 634 -119 95 -193 117 -367 112 -127 -4 -157 -8 -220 -28 -154 -49
-282 -188 -426 -463 -74 -142 -134 -233 -187 -284 -63 -62 -99 -76 -192 -76
-73 1 -89 5 -177 44 l-98 44 67 46 c89 61 153 142 219 276 108 221 113 374 18
572 -73 153 -187 251 -337 289 -51 14 -229 27 -239 19z"/>
</g>
</svg>
